<svg height="512" viewBox="0 0 128 128" width="512" xmlns="http://www.w3.org/2000/svg"><g><path d="m105.844 15.65a20.377 20.377 0 0 0 -17.574 10.067 26.443 26.443 0 0 1 0 20.678 20.4 20.4 0 1 0 17.574-30.745z" fill="#4d5680"/><path d="m22.155 15.65a20.378 20.378 0 0 1 17.575 10.067 26.443 26.443 0 0 0 0 20.678 20.4 20.4 0 1 1 -17.575-30.745z" fill="#4d5680"/><path d="m58.7 61.9v-4.031a5.3 5.3 0 0 1 5.82-5.269 5.45 5.45 0 0 1 4.78 5.5v3.8a26.375 26.375 0 1 0 -10.594 0z" fill="#f3f5f9"/><path d="m64 35.149a6.683 6.683 0 0 1 -6.683-6.683v-2.632a6.683 6.683 0 0 1 6.683-6.683 6.683 6.683 0 0 1 6.683 6.683v2.632a6.683 6.683 0 0 1 -6.683 6.683z" fill="#ffd9b3"/><path d="m110.858 41.823h-10.027a8.773 8.773 0 0 0 -8.774 8.777v.5a20.4 20.4 0 0 0 27.575 0v-.5a8.774 8.774 0 0 0 -8.774-8.777z" fill="#ffd830"/><path d="m105.844 35.354a5.17 5.17 0 0 1 -5.17-5.17v-2.037a5.17 5.17 0 0 1 5.17-5.17 5.171 5.171 0 0 1 5.171 5.17v2.037a5.171 5.171 0 0 1 -5.171 5.17z" fill="#ffd9b3"/><path d="m17.142 41.823h10.027a8.773 8.773 0 0 1 8.774 8.777v.5a20.4 20.4 0 0 1 -27.575 0v-.5a8.774 8.774 0 0 1 8.774-8.777z" fill="#80ecc6"/><path d="m22.155 35.354a5.171 5.171 0 0 0 5.171-5.17v-2.037a5.171 5.171 0 0 0 -5.171-5.17 5.17 5.17 0 0 0 -5.17 5.17v2.037a5.17 5.17 0 0 0 5.17 5.17z" fill="#ffd9b3"/><path d="m96.3 87.715a5.3 5.3 0 0 0 -5.817 5.272v-6.272a5.451 5.451 0 0 0 -4.776-5.5 5.3 5.3 0 0 0 -5.817 5.272v-7.147a5.452 5.452 0 0 0 -4.777-5.5 5.3 5.3 0 0 0 -5.813 5.272v-21.012a5.45 5.45 0 0 0 -4.777-5.5 5.3 5.3 0 0 0 -5.823 5.269v45.6l-12.553-12.56a5.451 5.451 0 0 0 -7.267-.509 5.3 5.3 0 0 0 -.385 7.841l17.444 17.444a9 9 0 0 0 6.363 2.636h29.776a9 9 0 0 0 9-9v-16.1a5.451 5.451 0 0 0 -4.778-5.506z" fill="#ffd9b3"/><path d="m58.7 57.869a5.3 5.3 0 0 1 5.82-5.269 5.45 5.45 0 0 1 4.78 5.5v3.8a26.3 26.3 0 0 0 12.52-6.4v-.65a11.341 11.341 0 0 0 -11.34-11.341h-12.96a11.341 11.341 0 0 0 -11.34 11.341v.65a26.3 26.3 0 0 0 12.523 6.4z" fill="#4d5680"/></g></svg>