<svg height="512" viewBox="0 0 64 64" width="512" xmlns="http://www.w3.org/2000/svg"><g id="Online_Test-Examination-Test-Computer-Pencil" data-name="Online Test-Examination-Test-Computer-Pencil"><path d="m55 15v26h-52v-26a4 4 0 0 1 4-4h44a4 4 0 0 1 4 4z" fill="#5aaae7"/><path d="m49 7v34h-40v-30h6a2.006 2.006 0 0 0 2-2v-6h28a4 4 0 0 1 4 4z" fill="#e6e7e8"/><path d="m55 15a4 4 0 0 0 -4-4h-1.66l-.34.34v11.31l6-6z" fill="#3d9ae2"/><path d="m47.34 13-8.8 8.81-1.57 4.08-1.97 5.11 5.11-1.97 4.08-1.57 4.81-4.81v-11.31z" fill="#d8d7da"/><path d="m60.46 3.54a4.008 4.008 0 0 1 0 5.66l-1.42 1.42-2.83-2.83-2.83-2.83 1.42-1.42a4.008 4.008 0 0 1 5.66 0z" fill="#d1d3d4"/><path d="m55 41v4a4 4 0 0 1 -4 4h-44a4 4 0 0 1 -4-4v-4z" fill="#c6c5ca"/><path d="m56.21 7.79-3.57 3.57-3.64 3.64-7.63 7.64 2.82 2.82 4.81-4.81 5.98-5.98 4.06-4.05z" fill="#00b39d"/><path d="m56.21 7.79-7.21 7.21-7.63 7.64h-.01l-2.82-2.83 8.8-8.81 1.66-1.66 4.38-4.38z" fill="#00ccb3"/><path d="m44.19 25.46-4.08 1.57-3.14-3.14 1.57-4.08 2.82 2.83h.01z" fill="#c6c5ca"/><path d="m40.41 57.59a1.955 1.955 0 0 1 .59 1.41 2.006 2.006 0 0 1 -2 2h-20a2.015 2.015 0 0 1 -2-2 2.006 2.006 0 0 1 2-2h20a1.955 1.955 0 0 1 1.41.59z" fill="#898890"/><path d="m40.11 27.03-5.11 1.97 1.97-5.11z" fill="#898890"/><path d="m37 57h-16l1-8h14z" fill="#acabb1"/><path d="m23.83 18.17a4.008 4.008 0 1 1 -2.83-1.17 4.025 4.025 0 0 1 2.83 1.17z" fill="#d8d7da"/><path d="m23.83 30.17a4.008 4.008 0 1 1 -2.83-1.17 4.025 4.025 0 0 1 2.83 1.17z" fill="#d8d7da"/><path d="m23.83 16.17a4.008 4.008 0 1 1 -2.83-1.17 4.025 4.025 0 0 1 2.83 1.17z" fill="#ffd422"/><path d="m23.83 28.17a4.008 4.008 0 1 1 -2.83-1.17 4.025 4.025 0 0 1 2.83 1.17z" fill="#ffd422"/><path d="m17 3v6a2.006 2.006 0 0 1 -2 2h-6z" fill="#bcbec0"/><path d="m36.25 51h-14.5l.25-2h14z" fill="#898890"/><path d="m48 44h2v2h-2z" fill="#898890"/><path d="m18.757 16h8.485v2h-8.485z" fill="#ff9811" transform="matrix(.707 -.707 .707 .707 -5.284 21.243)"/><path d="m30 16h7v2h-7z" fill="#bcbec0"/><path d="m30 20h4v2h-4z" fill="#bcbec0"/><path d="m18.757 28h8.485v2h-8.485z" fill="#ff9811" transform="matrix(.707 -.707 .707 .707 -13.77 24.757)"/><g fill="#bcbec0"><path d="m30 28h2v2h-2z"/><path d="m30 32h8v2h-8z"/></g></g></svg>