<svg height="503pt" viewBox="-9 0 503 503.94493" width="503pt" xmlns="http://www.w3.org/2000/svg"><path d="m295.21875 217.570312c0 23.964844-19.429688 43.390626-43.390625 43.390626-23.964844 0-43.390625-19.425782-43.390625-43.390626 0-1.214843.085938-2.339843.171875-3.46875 2.71875-.929687 5.183594-2.476562 7.203125-4.511718 5.160156-5.195313 6.910156-12.871094 4.511719-19.789063-.09375-.515625-.269531-1.011719-.519531-1.472656 11.699218-12.820313 29.917968-17.425781 46.300781-11.699219 16.386719 5.726563 27.773437 20.675782 28.9375 37.992188.148437.976562.207031 1.964844.175781 2.949218zm0 0" fill="#f09372"/><path d="m215.8125 209.589844c-2.019531 2.035156-4.484375 3.582031-7.203125 4.511718l11.195313-25.773437c.25.460937.425781.957031.519531 1.472656 2.398437 6.917969.648437 14.59375-4.511719 19.789063zm0 0" fill="#f09372"/><path d="m329.929688 313.03125v52.066406c-.03125 9.574219-7.785157 17.328125-17.355469 17.355469-9.558594-.070313-17.285157-7.800781-17.355469-17.355469v34.710938h-86.78125v-34.710938c-.027344 9.574219-7.78125 17.328125-17.355469 17.355469-9.554687-.070313-17.285156-7.800781-17.355469-17.355469v-52.066406c0-14.378906 11.65625-26.035156 26.03125-26.035156h104.136719c14.378907 0 26.035157 11.65625 26.035157 26.035156zm0 0" fill="#285680"/><g fill="#2c3e50"><path d="m295.21875 373.777344c-4.792969 0-8.679688-3.886719-8.679688-8.679688v-43.390625c0-4.792969 3.886719-8.675781 8.679688-8.675781 4.789062 0 8.675781 3.882812 8.675781 8.675781v43.390625c0 4.792969-3.886719 8.679688-8.675781 8.679688zm0 0"/><path d="m208.4375 373.777344c-4.792969 0-8.679688-3.886719-8.679688-8.679688v-43.390625c0-4.792969 3.886719-8.675781 8.679688-8.675781s8.675781 3.882812 8.675781 8.675781v43.390625c0 4.792969-3.882812 8.679688-8.675781 8.679688zm0 0"/><path d="m295.21875 373.777344c-4.792969 0-8.679688-3.886719-8.679688-8.679688v-17.355468c0-4.792969 3.886719-8.679688 8.679688-8.679688 4.789062 0 8.675781 3.886719 8.675781 8.679688v17.355468c0 4.792969-3.886719 8.679688-8.675781 8.679688zm0 0"/></g><path d="m295.21875 399.808594v82.441406c0 11.980469-9.714844 21.695312-21.695312 21.695312-11.984376 0-21.695313-9.714843-21.695313-21.695312 0 11.980469-9.714844 21.695312-21.695313 21.695312-11.980468 0-21.695312-9.714843-21.695312-21.695312v-82.441406zm0 0" fill="#35495e"/><path d="m251.828125 490.929688c-4.792969 0-8.679687-3.886719-8.679687-8.679688v-39.050781c0-4.792969 3.886718-8.679688 8.679687-8.679688s8.675781 3.886719 8.675781 8.679688v39.050781c0 4.792969-3.882812 8.679688-8.675781 8.679688zm0 0" fill="#2c3e50"/><path d="m208.4375 373.777344c-4.792969 0-8.679688-3.886719-8.679688-8.679688v-17.355468c0-4.792969 3.886719-8.679688 8.679688-8.679688s8.675781 3.886719 8.675781 8.679688v17.355468c0 4.792969-3.882812 8.679688-8.675781 8.679688zm0 0" fill="#2c3e50"/><path d="m139.011719 217.570312c0 23.964844-19.425781 43.390626-43.386719 43.390626-23.964844 0-43.390625-19.425782-43.390625-43.390626 0-23.960937 19.425781-43.386718 43.390625-43.386718 23.960938 0 43.386719 19.425781 43.386719 43.386718zm0 0" fill="#fdd7ad"/><path d="m173.726562 313.03125v52.066406c-.03125 9.574219-7.785156 17.328125-17.355468 17.355469-9.558594-.070313-17.285156-7.800781-17.359375-17.355469v34.710938h-86.777344v-34.710938c-.027344 9.574219-7.78125 17.328125-17.355469 17.355469-9.558594-.070313-17.285156-7.800781-17.355468-17.355469v-52.066406c0-14.378906 11.65625-26.035156 26.03125-26.035156h104.136718c14.378906 0 26.035156 11.65625 26.035156 26.035156zm0 0" fill="#e64c3c"/><path d="m139.011719 373.777344c-4.789063 0-8.675781-3.886719-8.675781-8.679688v-43.390625c0-4.792969 3.886718-8.675781 8.675781-8.675781 4.792969 0 8.679687 3.882812 8.679687 8.675781v43.390625c0 4.792969-3.886718 8.679688-8.679687 8.679688zm0 0" fill="#c03a2b"/><path d="m52.234375 373.777344c-4.792969 0-8.679687-3.886719-8.679687-8.679688v-43.390625c0-4.792969 3.886718-8.675781 8.679687-8.675781s8.675781 3.882812 8.675781 8.675781v43.390625c0 4.792969-3.882812 8.679688-8.675781 8.679688zm0 0" fill="#c03a2b"/><path d="m139.011719 373.777344c-4.789063 0-8.675781-3.886719-8.675781-8.679688v-17.355468c0-4.792969 3.886718-8.679688 8.675781-8.679688 4.792969 0 8.679687 3.886719 8.679687 8.679688v17.355468c0 4.792969-3.886718 8.679688-8.679687 8.679688zm0 0" fill="#c03a2b"/><path d="m139.011719 399.808594v82.441406c0 11.980469-9.710938 21.695312-21.691407 21.695312-11.984374 0-21.695312-9.714843-21.695312-21.695312 0 11.980469-9.714844 21.695312-21.695312 21.695312-11.984376 0-21.695313-9.714843-21.695313-21.695312v-82.441406zm0 0" fill="#35495e"/><path d="m95.625 490.929688c-4.792969 0-8.679688-3.886719-8.679688-8.679688v-39.050781c0-4.792969 3.886719-8.679688 8.679688-8.679688s8.675781 3.886719 8.675781 8.679688v39.050781c0 4.792969-3.882812 8.679688-8.675781 8.679688zm0 0" fill="#2c3e50"/><path d="m52.234375 373.777344c-4.792969 0-8.679687-3.886719-8.679687-8.679688v-17.355468c0-4.792969 3.886718-8.679688 8.679687-8.679688s8.675781 3.886719 8.675781 8.679688v17.355468c0 4.792969-3.882812 8.679688-8.675781 8.679688zm0 0" fill="#c03a2b"/><path d="m451.421875 217.570312c0 23.964844-19.429687 43.390626-43.390625 43.390626-23.964844 0-43.390625-19.425782-43.390625-43.390626 0-23.960937 19.425781-43.386718 43.390625-43.386718 23.960938 0 43.390625 19.425781 43.390625 43.386718zm0 0" fill="#fdd7ad"/><path d="m486.132812 313.03125v52.066406c-.027343 9.574219-7.78125 17.328125-17.355468 17.355469-9.558594-.070313-17.285156-7.800781-17.355469-17.355469v34.710938h-86.78125v-34.710938c-.027344 9.574219-7.78125 17.328125-17.355469 17.355469-9.554687-.070313-17.285156-7.800781-17.355468-17.355469v-52.066406c0-14.378906 11.65625-26.035156 26.03125-26.035156h104.136718c14.378906 0 26.035156 11.65625 26.035156 26.035156zm0 0" fill="#e64c3c"/><path d="m451.421875 373.777344c-4.792969 0-8.679687-3.886719-8.679687-8.679688v-43.390625c0-4.792969 3.886718-8.675781 8.679687-8.675781s8.675781 3.882812 8.675781 8.675781v43.390625c0 4.792969-3.882812 8.679688-8.675781 8.679688zm0 0" fill="#c03a2b"/><path d="m364.640625 373.777344c-4.792969 0-8.679687-3.886719-8.679687-8.679688v-43.390625c0-4.792969 3.886718-8.675781 8.679687-8.675781s8.679687 3.882812 8.679687 8.675781v43.390625c0 4.792969-3.886718 8.679688-8.679687 8.679688zm0 0" fill="#c03a2b"/><path d="m451.421875 373.777344c-4.792969 0-8.679687-3.886719-8.679687-8.679688v-17.355468c0-4.792969 3.886718-8.679688 8.679687-8.679688s8.675781 3.886719 8.675781 8.679688v17.355468c0 4.792969-3.882812 8.679688-8.675781 8.679688zm0 0" fill="#c03a2b"/><path d="m451.421875 399.808594v82.441406c0 11.980469-9.714844 21.695312-21.695313 21.695312-11.984374 0-21.695312-9.714843-21.695312-21.695312 0 11.980469-9.714844 21.695312-21.695312 21.695312-11.980469 0-21.695313-9.714843-21.695313-21.695312v-82.441406zm0 0" fill="#35495e"/><path d="m408.03125 490.929688c-4.792969 0-8.679688-3.886719-8.679688-8.679688v-39.050781c0-4.792969 3.886719-8.679688 8.679688-8.679688s8.675781 3.886719 8.675781 8.679688v39.050781c0 4.792969-3.882812 8.679688-8.675781 8.679688zm0 0" fill="#2c3e50"/><path d="m364.640625 373.777344c-4.792969 0-8.679687-3.886719-8.679687-8.679688v-17.355468c0-4.792969 3.886718-8.679688 8.679687-8.679688s8.679687 3.886719 8.679687 8.679688v17.355468c0 4.792969-3.886718 8.679688-8.679687 8.679688zm0 0" fill="#c03a2b"/><path d="m451.421875 150.578125c-.007813 6.871094-3.527344 13.265625-9.335937 16.941406-5.804688 3.675781-13.085938 4.128907-19.304688 1.195313l-136.242188-64.5625.261719.257812c13.894531 14.078125 22.925781 32.234375 25.773438 51.808594 1.996093 20.828125-7.203125 40.351562-17.53125 58.402344-.921875-14.371094-8.964844-27.332032-21.433594-34.539063 2.023437-5.707031 2.992187-11.734375 2.863281-17.789062-1.703125-15.714844-11.757812-29.285157-26.292968-35.492188-11.542969-5.554687-35.929688-14.058593-41.742188 3.382813-6.335938 18.917968 2.949219 40.613281 11.109375 57.535156.085937.175781.171875.433594.257813.609375.25.460937.425781.957031.519531 1.472656 2.398437 6.917969.648437 14.59375-4.511719 19.789063-2.019531 2.035156-4.484375 3.582031-7.203125 4.511718-8.140625 2.972657-17.261719.085938-22.214844-7.03125-2.691406-3.902343-5.8125-8.328124-9.109375-13.1875-8.679687-12.933593-19.09375-28.984374-29.59375-46.34375-6.472656-11.117187-14.980468-20.921874-25.078125-28.894531-16.210937-12.054687-37.984375-13.480469-55.625-3.644531l-16.578125 9.023438c-1.050781.566406-2.289062.671874-3.421875.292968-1.132812-.378906-2.0625-1.207031-2.566406-2.289062-11.191406-24.820313-31.671875-70.378906-43.5625-97.453125-.484375-1.042969-.515625-2.238281-.089844-3.308594.429688-1.066406 1.277344-1.910156 2.347657-2.332031 32.164062-12.863282 66.542968-19.292969 101.183593-18.917969 91.378907 0 289.585938 106.824219 336.878907 133.121094 6.34375 3.503906 10.273437 10.191406 10.242187 17.441406zm0 0" fill="#fdd7ad"/></svg>