<svg height="512" viewBox="0 0 64 64" width="512" xmlns="http://www.w3.org/2000/svg"><g id="Ebook-Learning-Open_Book-Education-Keyboard" data-name="Ebook-Learning-Open Book-Education-Keyboard"><rect fill="#5aaae7" height="22" rx="2" width="58" x="3" y="35"/><path d="m58 7v28h-4v-21-7z" fill="#898890"/><path d="m54 51v10h-20v-9a2.006 2.006 0 0 1 2-2 2.015 2.015 0 0 1 2 2v-5a2.014 2.014 0 0 1 1.6-1.96 1.752 1.752 0 0 1 .4-.04 2.015 2.015 0 0 1 2 2v-1a2.006 2.006 0 0 1 2-2 2.015 2.015 0 0 1 2 2v1a2.006 2.006 0 0 1 2-2 2.015 2.015 0 0 1 2 2v4a2.006 2.006 0 0 1 2-2 2.015 2.015 0 0 1 2 2z" fill="#ffc477"/><path d="m54 3v32h-22v-28a4 4 0 0 1 4-4z" fill="#e6e7e8"/><path d="m35 17h8v10h-8z" fill="#ffa733"/><path d="m32 7v28h-22v-32h18a4 4 0 0 1 4 4z" fill="#e0e0e2"/><path d="m30 52v9h-20v-10a2.015 2.015 0 0 1 2-2 2.006 2.006 0 0 1 2 2v-4a2.015 2.015 0 0 1 2-2 2.006 2.006 0 0 1 2 2v-1a2.015 2.015 0 0 1 2-2 2.006 2.006 0 0 1 2 2v1a2.015 2.015 0 0 1 2-2 2.006 2.006 0 0 1 2 2v5a2.015 2.015 0 0 1 2-2 2.006 2.006 0 0 1 2 2z" fill="#ffc477"/><path d="m13 8h16v6h-16z" fill="#ffa733"/><path d="m6 7h4v28h-4z" fill="#898890"/><path d="m13 17h16v2h-16z" fill="#bcbec0"/><path d="m13 21h16v2h-16z" fill="#bcbec0"/><path d="m35 9h16v2h-16z" fill="#bcbec0"/><path d="m35 13h16v2h-16z" fill="#bcbec0"/><path d="m45 17h6v2h-6z" fill="#bcbec0"/><path d="m13 25h16v2h-16z" fill="#bcbec0"/><path d="m45 21h6v2h-6z" fill="#bcbec0"/><path d="m45 25h6v2h-6z" fill="#bcbec0"/><path d="m13 29h4v2h-4z" fill="#bcbec0"/><path d="m19 29h10v2h-10z" fill="#bcbec0"/><path d="m35 29h16v2h-16z" fill="#bcbec0"/><g fill="#1e81ce"><path d="m9 38h2v2h-2z"/><path d="m13 38h2v2h-2z"/><path d="m17 38h2v2h-2z"/><path d="m21 38h2v2h-2z"/><path d="m25 38h2v2h-2z"/><path d="m29 38h2v2h-2z"/><path d="m33 38h2v2h-2z"/><path d="m37 38h2v2h-2z"/><path d="m49 42h2v2h-2z"/><path d="m37 42h2v2h-2z"/><path d="m25 42h2v2h-2z"/><path d="m13 42h2v2h-2z"/><path d="m41 38h2v2h-2z"/><path d="m45 38h2v2h-2z"/><path d="m49 38h2v2h-2z"/><path d="m53 38h2v2h-2z"/><path d="m9 42h2v2h-2z"/><path d="m29 42h2v2h-2z"/><path d="m33 42h2v2h-2z"/><path d="m29 46h2v2h-2z"/><path d="m33 46h2v2h-2z"/><path d="m53 42h2v2h-2z"/></g><path d="m12 49v6h2v-4a2 2 0 0 0 -2-2z" fill="#ffb655"/><path d="m16 45v8h2v-6a2 2 0 0 0 -2-2z" fill="#ffb655"/><path d="m24 45v8h2v-6a2 2 0 0 0 -2-2z" fill="#ffb655"/><path d="m28 50v11h2v-9a2 2 0 0 0 -2-2z" fill="#ffb655"/><path d="m20 44v9h2v-7a2 2 0 0 0 -2-2z" fill="#ffb655"/><path d="m52 49v6h-2v-4a2 2 0 0 1 2-2z" fill="#ffb655"/><path d="m48 45v8h-2v-6a2 2 0 0 1 2-2z" fill="#ffb655"/><path d="m40 45v8h-2v-6a2 2 0 0 1 2-2z" fill="#ffb655"/><path d="m36 50v11h-2v-9a2 2 0 0 1 2-2z" fill="#ffb655"/><path d="m44 44v9h-2v-7a2 2 0 0 1 2-2z" fill="#ffb655"/></g></svg>