<svg height="512" viewBox="0 0 64 64" width="512" xmlns="http://www.w3.org/2000/svg"><g id="Study-Ebook-Smartphone-Education-Online"><path d="m7 13h38v36h-38z" fill="#e6e7e8"/><path d="m56.46 17.54a4.008 4.008 0 0 1 0 5.66l-1.42 1.42-2.83-2.83-2.83-2.83 1.42-1.42a4.008 4.008 0 0 1 5.66 0z" fill="#d1d3d4"/><path d="m45 49v7a5 5 0 0 1 -5 5h-28a5 5 0 0 1 -5-5v-7z" fill="#5aaae7"/><path d="m45 25.34v11.31l-4.81 4.81-4.08 1.57-5.11 1.97 1.97-5.11 1.57-4.08z" fill="#d8d7da"/><path d="m52.21 21.79-7.21 7.21-7.63 7.64 2.82 2.82 4.81-4.81 10.04-10.03z" fill="#00b39d"/><path d="m49.38 18.96-4.38 4.38-10.46 10.47 2.82 2.83h.01l7.63-7.64 7.21-7.21z" fill="#00ccb3"/><path d="m45 8v5h-38v-5a5 5 0 0 1 5-5h28a5 5 0 0 1 5 5z" fill="#5aaae7"/><path d="m40.19 39.46-4.08 1.57-3.14-3.14 1.57-4.08 2.82 2.83h.01z" fill="#c6c5ca"/><path d="m36.11 41.03-5.11 1.97 1.97-5.11z" fill="#898890"/><path d="m29.41 53.59a1.955 1.955 0 0 1 .59 1.41 2.006 2.006 0 0 1 -2 2h-4a2.015 2.015 0 0 1 -2-2 2.006 2.006 0 0 1 2-2h4a1.955 1.955 0 0 1 1.41.59z" fill="#e6e7e8"/><path d="m19 13v8l-3-3-3 3v-8z" fill="#ff5023"/><path d="m19 6h2v2h-2z" fill="#3d9ae2"/><path d="m23 6h6v2h-6z" fill="#3d9ae2"/><g fill="#bcbec0"><path d="m12 26h23v2h-23z"/><path d="m24 20h11v2h-11z"/><path d="m24 16h2v2h-2z"/><path d="m28 16h7v2h-7z"/><path d="m12 30h18v2h-18z"/><path d="m12 34h18v2h-18z"/><path d="m12 38h8v2h-8z"/><path d="m22 38h6v2h-6z"/><path d="m12 42h14v2h-14z"/></g></g></svg>